<svg width="1994" height="1982" viewBox="0 0 1994 1982" fill="none" xmlns="http://www.w3.org/2000/svg">
<rect x="10" y="10" width="1974" height="1962" fill="white" stroke="black" stroke-width="20"/>
<path d="M516.3 1199C619.619 1285.29 738.101 1279.97 771.953 1279.97C764.548 1770.71 708.128 1673.4 516.3 1811C324.472 1673.4 268.405 1770.71 261 1279.97C294.499 1279.97 412.981 1285.29 516.3 1199Z" stroke="#3375BB" stroke-width="70" stroke-miterlimit="10" stroke-linecap="round" stroke-linejoin="round"/>
<g clip-path="url(#clip0_107_179)">
<path d="M1755.77 626.991L1736.9 575.733L1750.05 546.327C1750.87 544.471 1751.12 542.411 1750.75 540.414C1750.39 538.416 1749.44 536.574 1748.01 535.126L1712.28 499.049C1704.63 491.274 1694.92 485.835 1684.29 483.367C1673.65 480.899 1662.54 481.504 1652.24 485.111L1642.45 488.566L1587.94 429.514L1494.89 429L1401.83 429.729L1347.38 489.259L1337.69 485.828C1327.32 482.182 1316.13 481.568 1305.43 484.058C1294.72 486.548 1284.95 492.039 1277.26 499.886L1240.72 536.644C1239.58 537.796 1238.82 539.265 1238.53 540.858C1238.24 542.451 1238.43 544.095 1239.09 545.574L1252.8 576.128L1234 627.338L1301.5 884.01C1307.88 908.259 1322.56 929.505 1342.98 944.054L1476.48 1034.53C1481.72 1038.72 1488.24 1041.01 1494.95 1041.01C1501.66 1041.01 1508.17 1038.72 1513.41 1034.53L1646.84 943.923C1667.29 929.423 1681.96 908.154 1688.25 883.879L1743.32 673.324L1755.77 626.991Z" fill="url(#paint0_linear_107_179)"/>
<path d="M1510.13 808.331C1506.61 806.749 1502.97 805.431 1499.24 804.386H1492.68C1488.96 805.433 1485.32 806.751 1481.79 808.331L1465.28 815.192L1446.63 823.775L1416.27 839.602C1415.16 839.949 1414.18 840.624 1413.45 841.539C1412.73 842.453 1412.3 843.565 1412.22 844.728C1412.14 845.891 1412.42 847.051 1413.01 848.056C1413.6 849.061 1414.48 849.864 1415.53 850.36L1441.9 868.877C1447.48 872.862 1452.88 877.149 1458.1 881.739L1465.52 888.135L1481.06 901.726L1488.1 907.942C1490.28 909.745 1493.02 910.732 1495.84 910.732C1498.67 910.732 1501.41 909.745 1503.58 907.942L1533.93 881.428L1550.19 868.554L1576.56 849.679C1577.61 849.181 1578.48 848.378 1579.06 847.375C1579.64 846.373 1579.9 845.218 1579.82 844.063C1579.73 842.908 1579.29 841.806 1578.57 840.903C1577.84 840 1576.86 839.338 1575.75 839.004L1545.43 823.703L1526.68 815.109L1510.13 808.331ZM1697.09 638.431L1698.05 635.682C1698.1 632.012 1697.87 628.344 1697.37 624.708C1694.85 618.188 1691.56 611.992 1687.58 606.251L1670.42 581.077L1658.21 564.485L1635.22 535.796C1633.12 532.997 1630.84 530.334 1628.4 527.822H1627.93L1617.72 529.711L1567.19 539.441C1562.08 539.677 1556.97 538.93 1552.14 537.242L1524.39 528.277L1504.54 522.79C1498.71 522.18 1492.83 522.18 1487 522.79L1467.1 528.336L1439.35 537.35C1434.52 539.026 1429.42 539.773 1424.3 539.549L1373.84 529.986L1363.63 528.097H1363.15C1360.7 530.6 1358.43 533.264 1356.34 536.07L1333.38 564.76C1329.14 570.139 1325.1 575.669 1321.26 581.352L1304.06 606.526L1295.96 620.046C1294.48 625.239 1293.7 630.606 1293.64 636.004L1294.59 638.754C1295 640.516 1295.52 642.249 1296.16 643.942L1309.7 659.482L1369.75 723.303C1371.74 725.626 1373.08 728.442 1373.62 731.457C1374.15 734.473 1373.87 737.577 1372.8 740.445L1362.72 763.707C1360.49 769.863 1360.33 776.576 1362.25 782.833L1364.21 788.236C1367.44 797.013 1372.97 804.759 1380.22 810.662L1389.65 818.348C1392.11 820.108 1394.96 821.219 1397.96 821.578C1400.96 821.938 1404 821.534 1406.8 820.404L1440.35 804.35C1446.52 801.291 1452.29 797.485 1457.54 793.018L1484.38 768.788C1485.46 767.826 1486.34 766.657 1486.95 765.351C1487.57 764.045 1487.91 762.628 1487.97 761.185C1488.02 759.745 1487.78 758.31 1487.27 756.964C1486.75 755.617 1485.98 754.386 1484.98 753.343L1424.3 712.521C1422.01 710.893 1420.37 708.496 1419.7 705.765C1419.02 703.034 1419.34 700.15 1420.61 697.638L1444.11 653.469C1445.45 650.768 1446.25 647.829 1446.45 644.82C1446.66 641.811 1446.27 638.791 1445.31 635.933C1442.38 630.477 1437.65 626.206 1431.93 623.847L1358.25 596.115C1352.94 594.202 1353.23 591.811 1358.86 591.476L1402.13 587.185C1408.92 586.751 1415.73 587.356 1422.33 588.978L1459.99 599.497C1462.66 600.302 1464.95 602.049 1466.43 604.415C1467.91 606.781 1468.49 609.604 1468.04 612.36L1453.26 693.18C1452.26 697.655 1452.02 702.263 1452.53 706.819C1453.13 708.743 1458.18 711.122 1463.72 712.473L1486.66 717.255C1493.32 718.486 1500.15 718.486 1506.81 717.255L1527.44 712.473C1532.99 711.278 1537.99 708.612 1538.62 706.675C1539.12 702.122 1538.86 697.519 1537.87 693.048L1522.98 612.252C1522.55 609.497 1523.12 606.676 1524.6 604.311C1526.08 601.947 1528.37 600.199 1531.04 599.39L1568.7 588.835C1575.3 587.212 1582.11 586.607 1588.9 587.042L1632.17 591.07C1637.84 591.596 1638.15 593.7 1632.82 595.708L1559.14 623.596C1553.42 625.94 1548.69 630.222 1545.8 635.694C1543.87 641.468 1544.3 647.771 1547 653.23L1570.54 697.399C1571.81 699.913 1572.14 702.8 1571.46 705.536C1570.79 708.272 1569.15 710.674 1566.85 712.306L1506.3 753.224C1505.31 754.249 1504.54 755.459 1504.03 756.783C1503.51 758.108 1503.27 759.521 1503.3 760.942C1503.34 762.362 1503.66 763.761 1504.24 765.059C1504.81 766.356 1505.64 767.526 1506.68 768.501L1506.86 768.668L1533.74 792.898C1538.98 797.348 1544.74 801.149 1550.9 804.219L1584.44 820.177C1587.24 821.31 1590.28 821.712 1593.28 821.343C1596.28 820.975 1599.14 819.85 1601.58 818.073L1611.02 810.363C1618.28 804.447 1623.81 796.683 1627.02 787.89L1628.99 782.487C1630.91 776.229 1630.75 769.517 1628.52 763.36L1618.65 740.062C1617.59 737.191 1617.31 734.087 1617.84 731.071C1618.38 728.056 1619.71 725.238 1621.7 722.909L1681.74 659.016L1695.25 643.476C1695.97 641.826 1696.58 640.134 1697.09 638.407V638.431Z" fill="white"/>
</g>
<path d="M791.52 451L552.72 628.36L596.88 523.72L791.52 451Z" fill="#E2761B" stroke="#E2761B" stroke-linecap="round" stroke-linejoin="round"/>
<path d="M240.24 451L477.12 630.04L435.12 523.72L240.24 451ZM705.6 862.12L642 959.56L778.08 997L817.2 864.28L705.6 862.12ZM215.04 864.28L253.92 997L390 959.56L326.4 862.12L215.04 864.28Z" fill="#E4761B" stroke="#E4761B" stroke-linecap="round" stroke-linejoin="round"/>
<path d="M382.32 697.48L344.4 754.84L479.52 760.84L474.72 615.64L382.32 697.48ZM649.44 697.48L555.84 613.96L552.72 760.84L687.6 754.84L649.44 697.48ZM390 959.56L471.12 919.96L401.04 865.24L390 959.56ZM560.64 919.96L642 959.56L630.72 865.24L560.64 919.96Z" fill="#E4761B" stroke="#E4761B" stroke-linecap="round" stroke-linejoin="round"/>
<path d="M642 959.56L560.64 919.96L567.12 973L566.4 995.32L642 959.56ZM390 959.56L465.6 995.32L465.12 973L471.12 919.96L390 959.56Z" fill="#D7C1B3" stroke="#D7C1B3" stroke-linecap="round" stroke-linejoin="round"/>
<path d="M466.8 830.2L399.12 810.28L446.88 788.44L466.8 830.2ZM564.96 830.2L584.88 788.44L632.88 810.28L564.96 830.2Z" fill="#233447" stroke="#233447" stroke-linecap="round" stroke-linejoin="round"/>
<path d="M390 959.56L401.52 862.12L326.4 864.28L390 959.56ZM630.48 862.12L642 959.56L705.6 864.28L630.48 862.12ZM687.6 754.84L552.72 760.84L565.2 830.2L585.12 788.44L633.12 810.28L687.6 754.84ZM399.12 810.28L447.12 788.44L466.8 830.2L479.52 760.84L344.4 754.84L399.12 810.28Z" fill="#CD6116" stroke="#CD6116" stroke-linecap="round" stroke-linejoin="round"/>
<path d="M344.4 754.84L401.04 865.24L399.12 810.28L344.4 754.84ZM633.12 810.28L630.72 865.24L687.6 754.84L633.12 810.28ZM479.52 760.84L466.8 830.2L482.64 912.04L486.24 804.28L479.52 760.84ZM552.72 760.84L546.24 804.04L549.12 912.04L565.2 830.2L552.72 760.84Z" fill="#E4751F" stroke="#E4751F" stroke-linecap="round" stroke-linejoin="round"/>
<path d="M565.2 830.2L549.12 912.04L560.64 919.96L630.72 865.24L633.12 810.28L565.2 830.2ZM399.12 810.28L401.04 865.24L471.12 919.96L482.64 912.04L466.8 830.2L399.12 810.28Z" fill="#F6851B" stroke="#F6851B" stroke-linecap="round" stroke-linejoin="round"/>
<path d="M566.4 995.32L567.12 973L561.12 967.72H470.64L465.12 973L465.6 995.32L390 959.56L416.4 981.16L469.92 1018.36H561.84L615.6 981.16L642 959.56L566.4 995.32Z" fill="#C0AD9E" stroke="#C0AD9E" stroke-linecap="round" stroke-linejoin="round"/>
<path d="M560.64 919.96L549.12 912.04H482.64L471.12 919.96L465.12 973L470.64 967.72H561.12L567.12 973L560.64 919.96Z" fill="#161616" stroke="#161616" stroke-linecap="round" stroke-linejoin="round"/>
<path d="M801.6 639.88L822 541.96L791.52 451L560.64 622.36L649.44 697.48L774.96 734.2L802.8 701.8L790.8 693.16L810 675.64L795.12 664.12L814.32 649.48L801.6 639.88ZM210 541.96L230.4 639.88L217.44 649.48L236.64 664.12L222 675.64L241.2 693.16L229.2 701.8L256.8 734.2L382.32 697.48L471.12 622.36L240.24 451L210 541.96Z" fill="#763D16" stroke="#763D16" stroke-linecap="round" stroke-linejoin="round"/>
<path d="M774.96 734.2L649.44 697.48L687.6 754.84L630.72 865.24L705.6 864.28H817.2L774.96 734.2ZM382.32 697.48L256.8 734.2L215.04 864.28H326.4L401.04 865.24L344.4 754.84L382.32 697.48ZM552.72 760.84L560.64 622.36L597.12 523.72H435.12L471.12 622.36L479.52 760.84L482.4 804.52L482.64 912.04H549.12L549.6 804.52L552.72 760.84Z" fill="#F6851B" stroke="#F6851B" stroke-linecap="round" stroke-linejoin="round"/>
<g clip-path="url(#clip1_107_179)">
<path d="M1495 1199C1664.02 1199 1801 1335.98 1801 1505C1801 1674.02 1664.02 1811 1495 1811C1325.98 1811 1189 1674.02 1189 1505C1189 1335.98 1325.98 1199 1495 1199Z" fill="#0052FF"/>
<path d="M1495.06 1612.58C1435.65 1612.58 1387.48 1564.47 1387.48 1505C1387.48 1445.53 1435.65 1397.42 1495.06 1397.42C1548.31 1397.42 1592.54 1436.27 1601.02 1487.07H1709.38C1700.24 1376.62 1607.78 1289.84 1495 1289.84C1376.19 1289.84 1279.84 1386.19 1279.84 1505C1279.84 1623.81 1376.19 1720.16 1495 1720.16C1607.78 1720.16 1700.24 1633.38 1709.38 1522.93H1600.96C1592.42 1573.73 1548.31 1612.58 1495.06 1612.58Z" fill="white"/>
</g>
<line y1="285" x2="1994" y2="285" stroke="black" stroke-width="20"/>
<circle cx="150" cy="151" r="75" fill="black"/>
<circle cx="337" cy="151" r="75" fill="black"/>
<circle cx="524" cy="151" r="75" fill="black"/>
<path d="M1848.8 151.003L1904.52 95.291C1906.49 93.3126 1906.49 90.1111 1904.52 88.1333L1893.87 77.4813C1892.92 76.5336 1891.63 76 1890.29 76C1888.95 76 1887.66 76.5336 1886.71 77.4813L1831 133.198L1775.29 77.4813C1774.34 76.5336 1773.05 76 1771.71 76C1770.37 76 1769.08 76.5336 1768.13 77.4813L1757.48 88.1333C1755.51 90.1111 1755.51 93.3126 1757.48 95.291L1813.2 151.003L1757.49 206.709C1755.51 208.687 1755.51 211.889 1757.49 213.867L1768.14 224.519C1769.08 225.466 1770.37 226 1771.72 226C1773.06 226 1774.35 225.466 1775.29 224.519L1831 168.809L1886.71 224.519C1887.65 225.466 1888.94 226 1890.28 226C1891.63 226 1892.91 225.466 1893.86 224.519L1904.51 213.867C1906.49 211.889 1906.49 208.687 1904.51 206.709L1848.8 151.003Z" fill="black"/>
<defs>
<linearGradient id="paint0_linear_107_179" x1="1233.96" y1="734.209" x2="1756.2" y2="734.209" gradientUnits="userSpaceOnUse">
<stop stop-color="#F1562B"/>
<stop offset="0.3" stop-color="#F1542B"/>
<stop offset="0.41" stop-color="#F04D2A"/>
<stop offset="0.49" stop-color="#EF4229"/>
<stop offset="0.5" stop-color="#EF4029"/>
<stop offset="0.56" stop-color="#E83E28"/>
<stop offset="0.67" stop-color="#E13C26"/>
<stop offset="1" stop-color="#DF3C26"/>
</linearGradient>
<clipPath id="clip0_107_179">
<rect width="521.773" height="612" fill="white" transform="translate(1234 429)"/>
</clipPath>
<clipPath id="clip1_107_179">
<rect width="612" height="612" fill="white" transform="translate(1189 1199)"/>
</clipPath>
</defs>
</svg>
