<?xml version="1.0" encoding="utf-8"?>
<!-- Generator: Adobe Illustrator 25.0.0, SVG Export Plug-In . SVG Version: 6.00 Build 0)  -->
<svg version="1.1" id="Layer_1" xmlns="http://www.w3.org/2000/svg" xmlns:xlink="http://www.w3.org/1999/xlink" x="0px" y="0px"
	 viewBox="0 0 1000 1000" style="enable-background:new 0 0 1000 1000;" xml:space="preserve">
<style type="text/css">
	.st0{fill:#FFFFFF;}
	.st1{fill:url(#SVGID_1_);}
	.st2{fill:url(#SVGID_2_);}
	.st3{fill:#14151A;}
</style>
<g>
	<circle class="st0" cx="500" cy="500" r="500"/>
	<g>
		
			<linearGradient id="SVGID_1_" gradientUnits="userSpaceOnUse" x1="223.6276" y1="543.4594" x2="776.371" y2="543.4594" gradientTransform="matrix(1 0 0 -1 0 1002)">
			<stop  offset="0" style="stop-color:#0082FA"/>
			<stop  offset="1" style="stop-color:#00F2FE"/>
		</linearGradient>
		<path class="st1" d="M290.6,253.3c3.4-4.3,7.1-8.5,10.7-12.6c0.2-0.2,0.5-0.2,0.7-0.5c0.3-0.4,0.9-0.7,1.2-1.1l0.3-0.4
			c2.5-2.3,5.2-4.9,8.3-7.1c11-8.4,22.4-14.7,34.5-18.9c38.6-13.6,81.6-5.2,115.3,26.6c47.1,44.1,42.9,115.2,5.3,162.5
			c-47.5,70.4-129.1,168.7-16.1,256.8c20.3,15.8,35.4,28.9,99.4,47.4c-41.9,7.7-80.7,5.3-123.9-5.7c-30.6-17.2-78.6-54.2-94.9-104.1
			C306.8,520.6,375,407.5,407.9,364c45.3-60.3-28-125.5-81.9-52.7c-28.2,38-77.5,145.4-60.3,225.1c10,45.2,23.4,78.1,76.3,123.4
			c-9.8-5.8-19.4-12.4-28.6-19.7C190.4,525.5,204.7,348.3,290.6,253.3z"/>
		
			<linearGradient id="SVGID_2_" gradientUnits="userSpaceOnUse" x1="223.6275" y1="592.2023" x2="776.371" y2="592.2023" gradientTransform="matrix(1 0 0 -1 0 1002)">
			<stop  offset="0" style="stop-color:#0082FA"/>
			<stop  offset="1" style="stop-color:#00F2FE"/>
		</linearGradient>
		<path class="st2" d="M709.4,615c-3.4,4.3-7.1,8.5-10.7,12.6c-0.2,0.2-0.5,0.2-0.7,0.5c-0.3,0.4-0.9,0.7-1.2,1.1l-0.3,0.4
			c-2.5,2.3-5.2,4.9-8.3,7.1c-11,8.4-22.4,14.7-34.5,18.9c-38.6,13.6-81.6,5.2-115.3-26.6c-47.1-44.1-42.9-115.2-5.3-162.5
			c47.5-70.4,129.1-168.7,16.1-256.8c-20.3-15.8-35.4-28.9-99.4-47.4c41.9-7.7,80.7-5.3,123.9,5.7c30.6,17.2,78.6,54.2,95,104.1
			c24.7,75.6-43.5,188.7-76.5,232.3c-45.3,60.3,28,125.5,81.9,52.7c28.2-38,77.5-145.4,60.3-225.1c-10-45.2-23.4-78.1-76.3-123.4
			c9.8,5.8,19.3,12.4,28.6,19.7C809.6,342.9,795.3,520,709.4,615z"/>
	</g>
	<g>
		<path class="st3" d="M314.4,769c0-4.8,3.9-8.7,8.7-8.7c4.8,0,8.7,3.9,8.7,8.7c0,4.8-3.9,8.7-8.7,8.7
			C318.3,777.8,314.4,773.9,314.4,769z M316,850.5v-64.8h14.1v64.8H316z"/>
		<path class="st3" d="M392.2,850.5V810c0-10.2-5.2-13.4-13.1-13.4c-7.1,0-13.3,4.3-16.6,8.6v45.3h-14.1v-64.8h14.1v8.7
			c4.3-5.1,12.7-10.3,22.9-10.3c14,0,20.9,7.5,20.9,20.8v45.6H392.2z"/>
		<path class="st3" d="M424.9,850.5V761h61.3v13.8h-45.6v23.1h44.7v13.8h-44.7v25h45.6v13.8H424.9z"/>
		<path class="st3" d="M528.2,850.5L493.1,761h17.8l27.1,72.3l27.1-72.3H583l-35.2,89.5H528.2z"/>
		<path class="st3" d="M669.9,850.5v-69.1l-27.4,69.1h-6.7l-27.5-69.1v69.1h-15.7V761h22.1l24.4,61.4l24.3-61.4h22.1v89.5H669.9z"/>
	</g>
</g>
</svg>
